<svg width="42" height="32" viewBox="0 0 42 32" fill="none" xmlns="http://www.w3.org/2000/svg">
    <path fill-rule="evenodd" clip-rule="evenodd" d="M1 6C1 4.89543 1.89543 4 3 4H39C40.1046 4 41 4.89543 41 6V26C41 27.1046 40.1046 28 39 28H3C1.89543 28 1 27.1046 1 26V6Z" fill="url(#paint0_linear_4002_2962)"/>
    <path d="M21 8L16 20H26L21 8Z" fill="black"/>
    <path d="M21 24C22.6569 24 24 22.6569 24 21C24 19.3431 22.6569 18 21 18C19.3431 18 18 19.3431 18 21C18 22.6569 19.3431 24 21 24Z" fill="black"/>
    <defs>
    <linearGradient id="paint0_linear_4002_2962" x1="1" y1="4" x2="41" y2="28" gradientUnits="userSpaceOnUse">
        <stop stop-color="#FFDB6E"/>
        <stop offset="1" stop-color="#FFBC5E"/>
    </linearGradient>
    </defs>
</svg>
